<svg width="18" height="18" viewBox="0 0 18 18" fill="none" xmlns="http://www.w3.org/2000/svg">
<path d="M3.6967 12.2842C2.33947 12.6914 1.5 13.2539 1.5 13.8752C1.5 15.1178 4.85786 16.1252 9 16.1252C13.1421 16.1252 16.5 15.1178 16.5 13.8752C16.5 13.2539 15.6605 12.6914 14.3033 12.2842" stroke="#333333" stroke-width="1.5" stroke-linecap="round" stroke-linejoin="round"/>
<path d="M9 13.125C9 13.125 13.875 9.939 13.875 6.25568C13.875 3.62919 11.6924 1.5 9 1.5C6.30761 1.5 4.125 3.62919 4.125 6.25568C4.125 9.939 9 13.125 9 13.125Z" stroke="#333333" stroke-width="1.5" stroke-linejoin="round"/>
<path d="M9 8.25C10.0355 8.25 10.875 7.41052 10.875 6.375C10.875 5.33947 10.0355 4.5 9 4.5C7.96447 4.5 7.125 5.33947 7.125 6.375C7.125 7.41052 7.96447 8.25 9 8.25Z" stroke="#333333" stroke-width="1.5" stroke-linejoin="round"/>
</svg>
