<svg width="26" height="26" viewBox="0 0 26 26" fill="none" xmlns="http://www.w3.org/2000/svg">
<rect width="26" height="26" rx="4" fill="#DF9146"/>
<path d="M14.795 5.53395V20.0993H15.8897V9.0083L19.4432 10.2368C19.7572 10.437 19.9565 10.7691 19.9847 11.1322L19.9883 11.2232V20.0993H21.1904V21.6445H4.81055V20.0993H6.00628V8.28122C6.00628 7.87536 6.21922 7.49862 6.57047 7.28205L12.9604 4.5366C13.7585 4.04611 14.7941 4.6094 14.7941 5.53486L14.795 5.53395ZM12.156 12.3917L8.64799 13.814V15.4856L12.1551 14.0624V12.3917H12.156ZM12.156 8.73712L8.64799 10.2022V11.8821L12.1542 10.4152V8.73712H12.156Z" fill="white"/>
</svg>
