<svg width="414" height="206" viewBox="0 0 414 206" fill="none" xmlns="http://www.w3.org/2000/svg">
<g clip-path="url(#clip0_17112_6692)">
<rect width="414" height="206" fill="url(#paint0_linear_17112_6692)" fill-opacity="0.8"/>
<path opacity="0.1" d="M175.5 253L-9.5 -9V253H175.5Z" fill="url(#paint1_linear_17112_6692)"/>
<path opacity="0.1" d="M285.398 262.135L-11 -63.127L1.89219 273.009L285.398 262.135Z" fill="url(#paint2_linear_17112_6692)"/>
<path opacity="0.2" fill-rule="evenodd" clip-rule="evenodd" d="M434 85H361C343.879 85 330 71.1208 330 54C330 36.8792 343.879 23 361 23C361.59 23 362.177 23.0165 362.759 23.0491C369.139 9.43169 382.968 0 399 0C420.939 0 438.753 17.6629 438.997 39.5444C449.297 41.8264 457 51.0137 457 62C457 74.3675 447.239 84.4551 435 84.9787V85H434Z" fill="url(#paint3_linear_17112_6692)"/>
</g>
<defs>
<linearGradient id="paint0_linear_17112_6692" x1="207" y1="0" x2="207" y2="206" gradientUnits="userSpaceOnUse">
<stop stop-color="#3A61EE"/>
<stop offset="1" stop-color="#6687FF"/>
</linearGradient>
<linearGradient id="paint1_linear_17112_6692" x1="-8.99999" y1="-9" x2="68.5" y2="231.5" gradientUnits="userSpaceOnUse">
<stop stop-color="white"/>
<stop offset="1" stop-color="white" stop-opacity="0"/>
</linearGradient>
<linearGradient id="paint2_linear_17112_6692" x1="-10.2338" y1="-63.1563" x2="87.5944" y2="251.045" gradientUnits="userSpaceOnUse">
<stop stop-color="white"/>
<stop offset="1" stop-color="white" stop-opacity="0"/>
</linearGradient>
<linearGradient id="paint3_linear_17112_6692" x1="393.5" y1="0" x2="393.5" y2="85" gradientUnits="userSpaceOnUse">
<stop stop-color="white"/>
<stop offset="1" stop-color="white" stop-opacity="0"/>
</linearGradient>
<clipPath id="clip0_17112_6692">
<rect width="414" height="206" fill="white"/>
</clipPath>
</defs>
</svg>
