<svg width="30" height="30" viewBox="0 0 30 30" fill="none" xmlns="http://www.w3.org/2000/svg">
<g clip-path="url(#clip0_16946_6214)">
<path d="M0 15C0 18.9782 1.58035 22.7936 4.3934 25.6066C7.20644 28.4196 11.0218 30 15 30C18.9782 30 22.7936 28.4196 25.6066 25.6066C28.4196 22.7936 30 18.9782 30 15C30 11.0218 28.4196 7.20644 25.6066 4.3934C22.7936 1.58035 18.9782 0 15 0C11.0218 0 7.20644 1.58035 4.3934 4.3934C1.58035 7.20644 0 11.0218 0 15Z" fill="#5E7EF1"/>
<path opacity="0.5" d="M17.8498 14.475L16.9123 12C16.0873 9.86253 13.9498 8.55003 11.7373 8.88753C11.3623 8.36253 10.6873 8.13753 10.0873 8.40003C9.44981 8.62503 9.11231 9.30003 9.22481 9.93753C7.53731 11.2125 6.89981 13.5375 7.68731 15.5625L8.58731 17.85C8.06231 18.525 7.94981 19.425 8.24981 20.2125V20.25C8.36231 20.55 8.54981 20.85 8.77481 21.075H8.81231C8.99981 21.2625 9.22481 21.3375 9.48731 21.3375C9.56231 21.3375 9.63731 21.3 9.78731 21.2625L19.0123 17.7C19.0873 17.6625 19.1248 17.6625 19.1998 17.5875C19.4623 17.4375 19.6123 17.175 19.6123 16.9125C19.6123 16.575 19.5748 16.2 19.4248 15.9V15.8625C19.1248 15.225 18.5623 14.6625 17.8498 14.475Z" fill="white"/>
<path d="M14.1377 21.375C14.1377 22.3125 14.8877 23.0625 15.8252 23.0625C16.7627 23.0625 17.5127 22.3125 17.5127 21.375H14.1377ZM21.6002 16.5375V13.5375C21.6002 10.9125 19.8752 8.7 17.4002 8.1375C17.2127 7.425 16.5752 6.9375 15.8627 6.9375C15.1127 6.9375 14.4752 7.5 14.3252 8.2125C12.0002 8.8875 10.3877 11.1 10.3877 13.5375V16.35C9.56269 16.875 9.0752 17.775 9.0752 18.75V18.7875C9.0752 19.1625 9.1502 19.5375 9.3002 19.875L9.3377 19.9125C9.4502 20.175 9.6752 20.3625 9.9377 20.4375C10.0127 20.475 10.1252 20.475 10.2752 20.475H21.4877C21.5627 20.475 21.6377 20.475 21.7127 20.4375C22.0502 20.4 22.3127 20.175 22.4252 19.9125C22.5752 19.575 22.6502 19.1625 22.6502 18.7875V18.75C22.6502 17.8875 22.2752 17.1 21.6002 16.5375Z" fill="white"/>
</g>
<defs>
<clipPath id="clip0_16946_6214">
<rect width="30" height="30" fill="white"/>
</clipPath>
</defs>
</svg>
