<svg width="18" height="18" viewBox="0 0 18 18" fill="none" xmlns="http://www.w3.org/2000/svg">
<path d="M6.37342 2.88184C6.64589 2.88184 6.89692 3.02959 7.02918 3.26781L7.94658 4.92036C8.0667 5.13674 8.07236 5.39845 7.96166 5.61981L7.07786 7.38745C7.07786 7.38745 7.33398 8.70422 8.40588 9.77612C9.47778 10.848 10.7902 11.0997 10.7902 11.0997L12.5575 10.2161C12.779 10.1053 13.0409 10.111 13.2574 10.2314L14.9146 11.1528C15.1526 11.2851 15.3002 11.536 15.3002 11.8082V13.7108C15.3002 14.6797 14.4002 15.3795 13.4822 15.0697C11.5967 14.4335 8.66996 13.2222 6.81491 11.3671C4.95982 9.51205 3.7485 6.58529 3.1123 4.69982C2.80254 3.78179 3.50232 2.88184 4.4712 2.88184H6.37342Z" stroke="#333333" stroke-width="1.5" stroke-linejoin="round"/>
</svg>
